<svg width="32" height="32" viewBox="0 0 32 32" fill="none" xmlns="http://www.w3.org/2000/svg" class="w-8 h-8">
  <defs>
    <linearGradient id="brandGradient" x1="0%" y1="0%" x2="100%" y2="100%">
      <stop offset="0%" stop-color="#a855f7" />
      <stop offset="100%" stop-color="#7c3aed" />
    </linearGradient>
  </defs>
  <path d="M6 22V18C6 16.8954 6.89543 16 8 16H10C11.1046 16 12 16.8954 12 18V22" stroke="url(#brandGradient)" stroke-width="2.5" stroke-linecap="round" stroke-linejoin="round"/>
  <path d="M14 22V12C14 10.8954 14.8954 10 16 10H18C19.1046 10 20 10.8954 20 12V22" stroke="url(#brandGradient)" stroke-width="2.5" stroke-linecap="round" stroke-linejoin="round"/>
  <path d="M22 22V6C22 4.89543 22.8954 4 24 4H26C27.1046 4 28 4.89543 28 6V22" stroke="url(#brandGradient)" stroke-width="2.5" stroke-linecap="round" stroke-linejoin="round"/>
  <path d="M4 28H28" stroke="url(#brandGradient)" stroke-width="2.5" stroke-linecap="round" stroke-linejoin="round"/>
  <path d="M22 10L26 6L30 10" stroke="url(#brandGradient)" stroke-width="2.5" stroke-linecap="round" stroke-linejoin="round"/>
</svg>